<svg xmlns="http://www.w3.org/2000/svg">
   <symbol id="triangle" viewBox="0 0 21 14">
      <g>
         <path d="M9.34767 1.3828C9.94736 0.663167 11.0526 0.663167 11.6523 1.3828L19.9498 11.3397C20.7639 12.3167 20.0692 13.8 18.7974 13.8L2.20256 13.8C0.930805 13.8 0.236072 12.3167 1.05023 11.3397L9.34767 1.3828Z" fill="#F44A45"/>
      </g>
   </symbol>

   <symbol id="telegram" viewBox="0 0 24 24">
      <g>
         <path d="m9.417 15.181-.397 5.584c.568 0 .814-.244 1.109-.537l2.663-2.545 5.518 4.041c1.012.564 1.725.267 1.998-.931l3.622-16.972.001-.001c.321-1.496-.541-2.081-1.527-1.714l-21.29 8.151c-1.453.564-1.431 1.374-.247 1.741l5.443 1.693 12.643-7.911c.595-.394 1.136-.176.691.218z" fill="#035755"/>
      </g>
   </symbol>

   <symbol id="twitter" viewBox="0 0 512 512">
      <g>
         <path d="M512,97.248c-19.04,8.352-39.328,13.888-60.48,16.576c21.76-12.992,38.368-33.408,46.176-58.016 c-20.288,12.096-42.688,20.64-66.56,25.408C411.872,60.704,384.416,48,354.464,48c-58.112,0-104.896,47.168-104.896,104.992 c0,8.32,0.704,16.32,2.432,23.936c-87.264-4.256-164.48-46.08-216.352-109.792c-9.056,15.712-14.368,33.696-14.368,53.056 c0,36.352,18.72,68.576,46.624,87.232c-16.864-0.32-33.408-5.216-47.424-12.928c0,0.32,0,0.736,0,1.152 c0,51.008,36.384,93.376,84.096,103.136c-8.544,2.336-17.856,3.456-27.52,3.456c-6.72,0-13.504-0.384-19.872-1.792 c13.6,41.568,52.192,72.128,98.08,73.12c-35.712,27.936-81.056,44.768-130.144,44.768c-8.608,0-16.864-0.384-25.12-1.44 C46.496,446.88,101.6,464,161.024,464c193.152,0,298.752-160,298.752-298.688c0-4.64-0.16-9.12-0.384-13.568 C480.224,136.96,497.728,118.496,512,97.248z" fill="#035755"/>
      </g>
   </symbol>

   
   <symbol id="youtube" viewBox="0 -77 512.00213 512">
      <g>
         <path d="m501.453125 56.09375c-5.902344-21.933594-23.195313-39.222656-45.125-45.128906-40.066406-10.964844-200.332031-10.964844-200.332031-10.964844s-160.261719 0-200.328125 10.546875c-21.507813 5.902344-39.222657 23.617187-45.125 45.546875-10.542969 40.0625-10.542969 123.148438-10.542969 123.148438s0 83.503906 10.542969 123.148437c5.90625 21.929687 23.195312 39.222656 45.128906 45.128906 40.484375 10.964844 200.328125 10.964844 200.328125 10.964844s160.261719 0 200.328125-10.546875c21.933594-5.902344 39.222656-23.195312 45.128906-45.125 10.542969-40.066406 10.542969-123.148438 10.542969-123.148438s.421875-83.507812-10.546875-123.570312zm0 0" fill="#035755"/>
         <path d="m204.96875 256 133.269531-76.757812-133.269531-76.757813zm0 0" fill="#fff"/>
      </g>
   </symbol>

      <symbol id="facebook" viewBox="0 0 155.139 155.139">
      <g>
         <path d="M89.584,155.139V84.378h23.742l3.562-27.585H89.584V39.184 c0-7.984,2.208-13.425 13.67-13.425l14.595-0.006V1.08C115.325,0.752,106.661,0,96.577,0C75.52,0,61.104,12.853,61.104,36.452 v20.341H37.29v27.585h23.814v70.761H89.584z" fill="#035755"/>
      </g>
   </symbol>
</svg>
